{"title":"Gravity 2013 480p WEB DL x264 AAC [GWC].mp4","uid":9444845,"size":441702599,"categoryP":"video","categoryS":"movies","magnet":"?xt=urn:btih:58679e882fcc9c82cb57083734f4c1f2912e8393&amp;dn=Gravity+2013+480p+WEB+DL+x264+AAC+%5BGWC%5D.mp4&amp;tr=udp%3A%2F%2Ftracker.openbittorrent.com%3A80&amp;tr=udp%3A%2F%2Fopen.demonii.com%3A1337&amp;tr=udp%3A%2F%2Ftracker.coppersurfer.tk%3A6969&amp;tr=udp%3A%2F%2Fexodus.desync.com%3A6969","seeders":1,"leechers":0,"uploader":"canc232","files":1,"time":1389070164,"description":"Gravity 2013 480p WEB DL x264 AAC [GWC]\n\n\nCOVER : &lt;a href=&quot;\nhttp://s20.postimg.org/3o533fvct/GRAVIT.jpg&quot; rel=&quot;nofollow&quot; target=&quot;_NEW&quot;&gt;\nhttp://s20.postimg.org/3o533fvct/GRAVIT.jpg&lt;/a&gt;\n\n\nIMDB : &lt;a href=&quot;\nhttp://www.imdb.com/title/tt1454468/&quot; rel=&quot;nofollow&quot; target=&quot;_NEW&quot;&gt;\nhttp://www.imdb.com/title/tt1454468/&lt;/a&gt;\n\nSTORYLINE :\nDr. Ryan Stone (Sandra Bullock) is a brilliant medical engineer on her first shuttle mission, with veteran astronaut Matt Kowalsky (George Clooney) in command of his last flight before retiring. But on a seemingly routine spacewalk, disaster strikes. The shuttle is destroyed, leaving Stone and Kowalsky completely alone - tethered to nothing but each other and spiraling out into the blackness.\n\n\nSCREENS : &lt;a href=&quot;\nhttp://s20.postimg.org/fuzmtimil/SSCS_1.jpg&quot; rel=&quot;nofollow&quot; target=&quot;_NEW&quot;&gt;\nhttp://s20.postimg.org/fuzmtimil/SSCS_1.jpg&lt;/a&gt; &lt;a href=&quot;\nhttp://s20.postimg.org/4wodbbxx9/SSCS_2.jpg&quot; rel=&quot;nofollow&quot; target=&quot;_NEW&quot;&gt;\nhttp://s20.postimg.org/4wodbbxx9/SSCS_2.jpg&lt;/a&gt; &lt;a href=&quot;\nhttp://s20.postimg.org/4l6wykhh9/SSCS_3.jpg&quot; rel=&quot;nofollow&quot; target=&quot;_NEW&quot;&gt;\nhttp://s20.postimg.org/4l6wykhh9/SSCS_3.jpg&lt;/a&gt; &lt;a href=&quot;\nhttp://s20.postimg.org/ctdfxayrh/SSCS_4.jpg&quot; rel=&quot;nofollow&quot; target=&quot;_NEW&quot;&gt;\nhttp://s20.postimg.org/ctdfxayrh/SSCS_4.jpg&lt;/a&gt; &lt;a href=&quot;\nhttp://s20.postimg.org/bflt1zzi5/SSCS_5.jpg&quot; rel=&quot;nofollow&quot; target=&quot;_NEW&quot;&gt;\nhttp://s20.postimg.org/bflt1zzi5/SSCS_5.jpg&lt;/a&gt; &lt;a href=&quot;\nhttp://s20.postimg.org/8vq67wby5/SSCS_6.jpg&quot; rel=&quot;nofollow&quot; target=&quot;_NEW&quot;&gt;\nhttp://s20.postimg.org/8vq67wby5/SSCS_6.jpg&lt;/a&gt;\n\nSAMPLE(Download) : &lt;a href=&quot;\nhttp://www.solidfiles.com/d/e7e07bfbf6/&quot; rel=&quot;nofollow&quot; target=&quot;_NEW&quot;&gt;\nhttp://www.solidfiles.com/d/e7e07bfbf6/&lt;/a&gt;\n\n\nMEDIA INFO :\nGeneral \nFormat : MPEG-4 \nFormat profile : Base Media \nFile size : 421 MiB \nDuration : 1h 26mn \nOverall bit rate mode : Variable \nOverall bit rate : 681 Kbps \n\nVideo \nFormat profile : &lt;a class=&quot;__cf_email__&quot; href=&quot;/cdn-cgi/l/email-protection&quot; data-cfemail=&quot;db93b2bcb39b97e8f5eb&quot;&gt;[email&amp;#160;protected]&lt;/a&gt;&lt;script cf-hash='f9e31' type=&quot;text/javascript&quot;&gt;\n/* &lt;![CDATA[ */!function(){try{var t=&quot;currentScript&quot;in document?document.currentScript:function(){for(var t=document.getElementsByTagName(&quot;script&quot;),e=t.length;e--;)if(t[e].getAttribute(&quot;cf-hash&quot;))return t[e]}();if(t&amp;&amp;t.previousSibling){var e,r,n,i,c=t.previousSibling,a=c.getAttribute(&quot;data-cfemail&quot;);if(a){for(e=&quot;&quot;,r=parseInt(a.substr(0,2),16),n=2;a.length-n;n+=2)i=parseInt(a.substr(n,2),16)^r,e+=String.fromCharCode(i);e=document.createTextNode(e),c.parentNode.replaceChild(e,c)}}}catch(u){}}();/* ]]&gt; */&lt;/script&gt; \nFormat settings, CABAC : Yes\nBit rate : 630 Kbps \nMaximum bit rate : 2 749 Kbps \nWidth : 720 pixels \nHeight : 300 pixels \nFrame rate : 23.976 fps \nStream size : 390 MiB (92%) \nTitle : Gravity 2013 480p WEB DL x264 AAC [GWC]\nWriting library : x264 core \n\nAudio \nFormat : AAC \nFormat profile : HE-AAC / LC \nBit rate mode : Variable \nChannel(s) : 2 channels \nSampling rate : 48.0 KHz / 24.0 KHz\nStream size : 29.6 MiB \nLanguage : English \n\nText \nFormat : Timed Text \nDuration : 1h 24mn \nStream size : 30.9 KiB (0%) \nTitle : [GWC] \nLanguage : English","torrent":{"xt":"urn:btih:58679e882fcc9c82cb57083734f4c1f2912e8393","amp;dn":"Gravity+2013+480p+WEB+DL+x264+AAC+%5BGWC%5D.mp4","amp;tr":["udp%3A%2F%2Ftracker.openbittorrent.com%3A80","udp%3A%2F%2Fopen.demonii.com%3A1337","udp%3A%2F%2Ftracker.coppersurfer.tk%3A6969","udp%3A%2F%2Fexodus.desync.com%3A6969"],"infoHash":"58679e882fcc9c82cb57083734f4c1f2912e8393","infoHashBuffer":{"type":"Buffer","data":[88,103,158,136,47,204,156,130,203,87,8,55,52,244,193,242,145,46,131,147]},"announce":[],"urlList":[]}}